<svg 
 xmlns="http://www.w3.org/2000/svg"
 xmlns:xlink="http://www.w3.org/1999/xlink"
 width="18px" height="18px">
<path fill-rule="evenodd"  fill="rgb(255, 255, 255)"
 d="M10.500,15.000 C8.940,15.000 7.492,14.522 6.292,13.707 L2.000,17.999 L-0.000,15.999 L4.292,11.707 C3.477,10.507 3.000,9.060 3.000,7.500 C3.000,3.358 6.358,-0.000 10.500,-0.000 C14.642,-0.000 18.000,3.358 18.000,7.500 C18.000,11.642 14.642,15.000 10.500,15.000 ZM10.500,2.000 C7.462,2.000 5.000,4.462 5.000,7.500 C5.000,10.537 7.462,13.000 10.500,13.000 C13.537,13.000 16.000,10.537 16.000,7.500 C16.000,4.462 13.537,2.000 10.500,2.000 ZM12.000,5.999 C11.001,5.000 10.000,3.999 10.000,3.999 C10.000,3.999 11.666,3.665 13.000,4.999 C14.332,6.332 14.000,7.999 14.000,7.999 C14.000,7.999 13.001,7.000 12.000,5.999 Z"/>
</svg>