<svg 
 xmlns="http://www.w3.org/2000/svg"
 xmlns:xlink="http://www.w3.org/1999/xlink"
 width="20px" height="20px">
<path fill-rule="evenodd"  fill="rgb(255, 255, 255)"
 d="M1.000,18.998 C1.000,18.998 0.736,17.029 1.755,16.129 C2.267,15.675 2.722,15.404 3.117,15.268 C3.513,15.132 5.089,14.309 5.089,14.309 L7.531,13.145 L7.849,11.278 C7.849,11.278 7.079,10.540 6.801,9.689 C6.523,8.838 6.486,8.379 6.486,8.379 C6.486,8.379 5.831,8.484 5.747,7.795 C5.664,7.107 5.608,5.864 5.608,5.864 L6.050,5.529 C6.050,5.529 5.960,4.579 6.053,3.738 C6.145,2.896 6.607,2.198 7.330,1.806 C8.053,1.414 9.123,0.668 9.123,0.668 L9.197,1.367 C9.197,1.367 9.397,0.891 9.726,0.553 C9.981,0.290 10.347,-0.002 10.347,-0.002 C10.347,-0.002 10.291,0.532 10.309,0.677 C10.345,0.961 10.542,1.204 10.542,1.204 L10.532,0.696 C10.532,0.696 11.641,1.232 12.327,1.749 C13.013,2.265 13.845,2.437 13.938,3.843 C14.030,5.249 13.953,5.577 13.953,5.577 L14.432,5.850 C14.432,5.850 14.309,7.473 14.265,7.815 C14.181,8.484 13.537,8.400 13.537,8.400 C13.537,8.400 13.494,9.017 13.189,9.766 C12.892,10.496 12.123,11.296 12.123,11.296 L12.437,13.146 L14.851,14.313 C14.851,14.313 16.522,15.081 16.972,15.262 C17.495,15.472 17.958,15.719 18.237,16.115 C19.081,17.309 19.000,18.998 19.000,18.998 C19.000,18.998 14.991,19.998 10.000,19.998 C5.008,19.998 1.000,18.998 1.000,18.998 Z"/>
</svg>